<mxfile host="app.diagrams.net" modified="2023-10-26T13:36:23.194Z" agent="Mozilla/5.0 (Windows NT 10.0; Win64; x64) AppleWebKit/537.36 (KHTML, like Gecko) Chrome/118.0.0.0 Safari/537.36" etag="MqK9bBa5E4zPPRQFXbMz" version="22.0.8" type="google">
  <diagram name="Page-1" id="poyiD8DRHHWNlF9zU0DL">
    <mxGraphModel grid="1" page="1" gridSize="10" guides="1" tooltips="1" connect="1" arrows="1" fold="1" pageScale="1" pageWidth="827" pageHeight="1169" math="0" shadow="0">
      <root>
        <mxCell id="0" />
        <mxCell id="1" parent="0" />
        <mxCell id="ZWvVgbF7W6ES2EtyLQqH-1" value="" style="fontColor=#0066CC;verticalAlign=top;verticalLabelPosition=bottom;labelPosition=center;align=center;html=1;outlineConnect=0;fillColor=#CCCCCC;strokeColor=#6881B3;gradientColor=none;gradientDirection=north;strokeWidth=2;shape=mxgraph.networks.pc;" vertex="1" parent="1">
          <mxGeometry x="92.5" y="100" width="40" height="30" as="geometry" />
        </mxCell>
        <mxCell id="ZWvVgbF7W6ES2EtyLQqH-2" value="" style="fontColor=#0066CC;verticalAlign=top;verticalLabelPosition=bottom;labelPosition=center;align=center;html=1;outlineConnect=0;fillColor=#CCCCCC;strokeColor=#6881B3;gradientColor=none;gradientDirection=north;strokeWidth=2;shape=mxgraph.networks.pc;" vertex="1" parent="1">
          <mxGeometry x="23" y="110" width="44" height="30" as="geometry" />
        </mxCell>
        <mxCell id="ZWvVgbF7W6ES2EtyLQqH-3" value="" style="fontColor=#0066CC;verticalAlign=top;verticalLabelPosition=bottom;labelPosition=center;align=center;html=1;outlineConnect=0;fillColor=#CCCCCC;strokeColor=#6881B3;gradientColor=none;gradientDirection=north;strokeWidth=2;shape=mxgraph.networks.pc;" vertex="1" parent="1">
          <mxGeometry x="159" y="105" width="42" height="30" as="geometry" />
        </mxCell>
        <mxCell id="ZWvVgbF7W6ES2EtyLQqH-4" value="" style="fontColor=#0066CC;verticalAlign=top;verticalLabelPosition=bottom;labelPosition=center;align=center;html=1;outlineConnect=0;fillColor=#CCCCCC;strokeColor=#6881B3;gradientColor=none;gradientDirection=north;strokeWidth=2;shape=mxgraph.networks.laptop;" vertex="1" parent="1">
          <mxGeometry x="15" y="30" width="34" height="20" as="geometry" />
        </mxCell>
        <mxCell id="oCrEiWGrqS6RGluIjLIZ-64" style="edgeStyle=orthogonalEdgeStyle;rounded=0;orthogonalLoop=1;jettySize=auto;html=1;exitX=0.9;exitY=1;exitDx=0;exitDy=0;exitPerimeter=0;" edge="1" parent="1" source="ZWvVgbF7W6ES2EtyLQqH-5">
          <mxGeometry relative="1" as="geometry">
            <mxPoint x="140" y="228" as="targetPoint" />
          </mxGeometry>
        </mxCell>
        <mxCell id="ZWvVgbF7W6ES2EtyLQqH-5" value="" style="fontColor=#0066CC;verticalAlign=top;verticalLabelPosition=bottom;labelPosition=center;align=center;html=1;outlineConnect=0;fillColor=#CCCCCC;strokeColor=#6881B3;gradientColor=none;gradientDirection=north;strokeWidth=2;shape=mxgraph.networks.printer;" vertex="1" parent="1">
          <mxGeometry x="30" y="187.5" width="30" height="40" as="geometry" />
        </mxCell>
        <mxCell id="ZWvVgbF7W6ES2EtyLQqH-6" value="" style="fontColor=#0066CC;verticalAlign=top;verticalLabelPosition=bottom;labelPosition=center;align=center;html=1;outlineConnect=0;fillColor=#CCCCCC;strokeColor=#6881B3;gradientColor=none;gradientDirection=north;strokeWidth=2;shape=mxgraph.networks.tablet;" vertex="1" parent="1">
          <mxGeometry x="178" y="25" width="35" height="30" as="geometry" />
        </mxCell>
        <mxCell id="ZWvVgbF7W6ES2EtyLQqH-7" value="" style="image;html=1;image=img/lib/clip_art/networking/Wireless_Router_N_128x128.png" vertex="1" parent="1">
          <mxGeometry x="97.5" y="20" width="30" height="30" as="geometry" />
        </mxCell>
        <mxCell id="ZWvVgbF7W6ES2EtyLQqH-8" value="" style="fontColor=#0066CC;verticalAlign=top;verticalLabelPosition=bottom;labelPosition=center;align=center;html=1;outlineConnect=0;fillColor=#CCCCCC;strokeColor=#6881B3;gradientColor=none;gradientDirection=north;strokeWidth=2;shape=mxgraph.networks.switch;" vertex="1" parent="1">
          <mxGeometry x="138" y="215" width="25" height="15" as="geometry" />
        </mxCell>
        <mxCell id="oCrEiWGrqS6RGluIjLIZ-1" value="" style="fontColor=#0066CC;verticalAlign=top;verticalLabelPosition=bottom;labelPosition=center;align=center;html=1;outlineConnect=0;fillColor=#CCCCCC;strokeColor=#6881B3;gradientColor=none;gradientDirection=north;strokeWidth=2;shape=mxgraph.networks.pc;" vertex="1" parent="1">
          <mxGeometry x="463" y="130" width="36" height="40" as="geometry" />
        </mxCell>
        <mxCell id="oCrEiWGrqS6RGluIjLIZ-68" style="edgeStyle=orthogonalEdgeStyle;rounded=0;orthogonalLoop=1;jettySize=auto;html=1;exitX=0.95;exitY=1;exitDx=0;exitDy=0;exitPerimeter=0;" edge="1" parent="1" source="oCrEiWGrqS6RGluIjLIZ-2">
          <mxGeometry relative="1" as="geometry">
            <mxPoint x="410" y="210" as="targetPoint" />
          </mxGeometry>
        </mxCell>
        <mxCell id="oCrEiWGrqS6RGluIjLIZ-2" value="" style="fontColor=#0066CC;verticalAlign=top;verticalLabelPosition=bottom;labelPosition=center;align=center;html=1;outlineConnect=0;fillColor=#CCCCCC;strokeColor=#6881B3;gradientColor=none;gradientDirection=north;strokeWidth=2;shape=mxgraph.networks.pc;" vertex="1" parent="1">
          <mxGeometry x="310" y="120" width="50" height="40" as="geometry" />
        </mxCell>
        <mxCell id="oCrEiWGrqS6RGluIjLIZ-3" value="" style="fontColor=#0066CC;verticalAlign=top;verticalLabelPosition=bottom;labelPosition=center;align=center;html=1;outlineConnect=0;fillColor=#CCCCCC;strokeColor=#6881B3;gradientColor=none;gradientDirection=north;strokeWidth=2;shape=mxgraph.networks.pc;" vertex="1" parent="1">
          <mxGeometry x="300" y="175" width="48" height="30" as="geometry" />
        </mxCell>
        <mxCell id="oCrEiWGrqS6RGluIjLIZ-4" value="" style="fontColor=#0066CC;verticalAlign=top;verticalLabelPosition=bottom;labelPosition=center;align=center;html=1;outlineConnect=0;fillColor=#CCCCCC;strokeColor=#6881B3;gradientColor=none;gradientDirection=north;strokeWidth=2;shape=mxgraph.networks.laptop;" vertex="1" parent="1">
          <mxGeometry x="463" y="40" width="40" height="20" as="geometry" />
        </mxCell>
        <mxCell id="oCrEiWGrqS6RGluIjLIZ-5" value="" style="fontColor=#0066CC;verticalAlign=top;verticalLabelPosition=bottom;labelPosition=center;align=center;html=1;outlineConnect=0;fillColor=#CCCCCC;strokeColor=#6881B3;gradientColor=none;gradientDirection=north;strokeWidth=2;shape=mxgraph.networks.printer;" vertex="1" parent="1">
          <mxGeometry x="401" y="100" width="26" height="40" as="geometry" />
        </mxCell>
        <mxCell id="oCrEiWGrqS6RGluIjLIZ-6" value="" style="fontColor=#0066CC;verticalAlign=top;verticalLabelPosition=bottom;labelPosition=center;align=center;html=1;outlineConnect=0;fillColor=#CCCCCC;strokeColor=#6881B3;gradientColor=none;gradientDirection=north;strokeWidth=2;shape=mxgraph.networks.tablet;" vertex="1" parent="1">
          <mxGeometry x="300" y="40" width="31" height="20" as="geometry" />
        </mxCell>
        <mxCell id="oCrEiWGrqS6RGluIjLIZ-7" value="" style="image;html=1;image=img/lib/clip_art/networking/Wireless_Router_N_128x128.png" vertex="1" parent="1">
          <mxGeometry x="380" y="30.5" width="30" height="30" as="geometry" />
        </mxCell>
        <mxCell id="oCrEiWGrqS6RGluIjLIZ-34" style="edgeStyle=orthogonalEdgeStyle;rounded=0;orthogonalLoop=1;jettySize=auto;html=1;" edge="1" parent="1">
          <mxGeometry relative="1" as="geometry">
            <mxPoint x="430" y="210" as="targetPoint" />
            <mxPoint x="430" y="200" as="sourcePoint" />
          </mxGeometry>
        </mxCell>
        <mxCell id="oCrEiWGrqS6RGluIjLIZ-8" value="" style="fontColor=#0066CC;verticalAlign=top;verticalLabelPosition=bottom;labelPosition=center;align=center;html=1;outlineConnect=0;fillColor=#CCCCCC;strokeColor=#6881B3;gradientColor=none;gradientDirection=north;strokeWidth=2;shape=mxgraph.networks.switch;" vertex="1" parent="1">
          <mxGeometry x="410" y="200" width="31" height="15" as="geometry" />
        </mxCell>
        <mxCell id="oCrEiWGrqS6RGluIjLIZ-9" value="" style="fontColor=#0066CC;verticalAlign=top;verticalLabelPosition=bottom;labelPosition=center;align=center;html=1;outlineConnect=0;fillColor=#CCCCCC;strokeColor=#6881B3;gradientColor=none;gradientDirection=north;strokeWidth=2;shape=mxgraph.networks.pc;" vertex="1" parent="1">
          <mxGeometry x="634" y="20" width="36" height="30" as="geometry" />
        </mxCell>
        <mxCell id="oCrEiWGrqS6RGluIjLIZ-10" value="" style="fontColor=#0066CC;verticalAlign=top;verticalLabelPosition=bottom;labelPosition=center;align=center;html=1;outlineConnect=0;fillColor=#CCCCCC;strokeColor=#6881B3;gradientColor=none;gradientDirection=north;strokeWidth=2;shape=mxgraph.networks.pc;" vertex="1" parent="1">
          <mxGeometry x="630" y="80" width="50" height="30" as="geometry" />
        </mxCell>
        <mxCell id="oCrEiWGrqS6RGluIjLIZ-61" style="edgeStyle=orthogonalEdgeStyle;rounded=0;orthogonalLoop=1;jettySize=auto;html=1;exitX=0;exitY=0.85;exitDx=0;exitDy=0;exitPerimeter=0;" edge="1" parent="1" source="oCrEiWGrqS6RGluIjLIZ-11">
          <mxGeometry relative="1" as="geometry">
            <mxPoint x="630" y="220" as="targetPoint" />
          </mxGeometry>
        </mxCell>
        <mxCell id="oCrEiWGrqS6RGluIjLIZ-11" value="" style="fontColor=#0066CC;verticalAlign=top;verticalLabelPosition=bottom;labelPosition=center;align=center;html=1;outlineConnect=0;fillColor=#CCCCCC;strokeColor=#6881B3;gradientColor=none;gradientDirection=north;strokeWidth=2;shape=mxgraph.networks.pc;" vertex="1" parent="1">
          <mxGeometry x="642" y="130" width="38" height="30" as="geometry" />
        </mxCell>
        <mxCell id="oCrEiWGrqS6RGluIjLIZ-12" value="" style="fontColor=#0066CC;verticalAlign=top;verticalLabelPosition=bottom;labelPosition=center;align=center;html=1;outlineConnect=0;fillColor=#CCCCCC;strokeColor=#6881B3;gradientColor=none;gradientDirection=north;strokeWidth=2;shape=mxgraph.networks.laptop;" vertex="1" parent="1">
          <mxGeometry x="726" y="15" width="40" height="20" as="geometry" />
        </mxCell>
        <mxCell id="oCrEiWGrqS6RGluIjLIZ-62" style="edgeStyle=orthogonalEdgeStyle;rounded=0;orthogonalLoop=1;jettySize=auto;html=1;exitX=0.9;exitY=1;exitDx=0;exitDy=0;exitPerimeter=0;" edge="1" parent="1" source="oCrEiWGrqS6RGluIjLIZ-13">
          <mxGeometry relative="1" as="geometry">
            <mxPoint x="640" y="240" as="targetPoint" />
          </mxGeometry>
        </mxCell>
        <mxCell id="oCrEiWGrqS6RGluIjLIZ-13" value="" style="fontColor=#0066CC;verticalAlign=top;verticalLabelPosition=bottom;labelPosition=center;align=center;html=1;outlineConnect=0;fillColor=#CCCCCC;strokeColor=#6881B3;gradientColor=none;gradientDirection=north;strokeWidth=2;shape=mxgraph.networks.printer;" vertex="1" parent="1">
          <mxGeometry x="656" y="182.5" width="26" height="40" as="geometry" />
        </mxCell>
        <mxCell id="oCrEiWGrqS6RGluIjLIZ-14" value="" style="fontColor=#0066CC;verticalAlign=top;verticalLabelPosition=bottom;labelPosition=center;align=center;html=1;outlineConnect=0;fillColor=#CCCCCC;strokeColor=#6881B3;gradientColor=none;gradientDirection=north;strokeWidth=2;shape=mxgraph.networks.tablet;rotation=15;direction=east;" vertex="1" parent="1">
          <mxGeometry x="749.93" y="169.99" width="30.52" height="40.16" as="geometry" />
        </mxCell>
        <mxCell id="oCrEiWGrqS6RGluIjLIZ-15" value="" style="image;html=1;image=img/lib/clip_art/networking/Wireless_Router_N_128x128.png" vertex="1" parent="1">
          <mxGeometry x="740" y="80" width="26" height="30" as="geometry" />
        </mxCell>
        <mxCell id="oCrEiWGrqS6RGluIjLIZ-16" value="" style="fontColor=#0066CC;verticalAlign=top;verticalLabelPosition=bottom;labelPosition=center;align=center;html=1;outlineConnect=0;fillColor=#CCCCCC;strokeColor=#6881B3;gradientColor=none;gradientDirection=north;strokeWidth=2;shape=mxgraph.networks.switch;" vertex="1" parent="1">
          <mxGeometry x="611" y="222.5" width="31" height="15" as="geometry" />
        </mxCell>
        <mxCell id="oCrEiWGrqS6RGluIjLIZ-17" value="" style="fontColor=#0066CC;verticalAlign=top;verticalLabelPosition=bottom;labelPosition=center;align=center;html=1;outlineConnect=0;fillColor=#CCCCCC;strokeColor=#6881B3;gradientColor=none;gradientDirection=north;strokeWidth=2;shape=mxgraph.networks.pc;" vertex="1" parent="1">
          <mxGeometry x="173" y="390" width="40" height="40" as="geometry" />
        </mxCell>
        <mxCell id="oCrEiWGrqS6RGluIjLIZ-77" style="edgeStyle=orthogonalEdgeStyle;rounded=0;orthogonalLoop=1;jettySize=auto;html=1;exitX=0.95;exitY=1;exitDx=0;exitDy=0;exitPerimeter=0;" edge="1" parent="1" source="oCrEiWGrqS6RGluIjLIZ-18">
          <mxGeometry relative="1" as="geometry">
            <mxPoint x="280" y="410" as="targetPoint" />
          </mxGeometry>
        </mxCell>
        <mxCell id="oCrEiWGrqS6RGluIjLIZ-18" value="" style="fontColor=#0066CC;verticalAlign=top;verticalLabelPosition=bottom;labelPosition=center;align=center;html=1;outlineConnect=0;fillColor=#CCCCCC;strokeColor=#6881B3;gradientColor=none;gradientDirection=north;strokeWidth=2;shape=mxgraph.networks.pc;" vertex="1" parent="1">
          <mxGeometry x="171" y="450" width="44" height="30" as="geometry" />
        </mxCell>
        <mxCell id="oCrEiWGrqS6RGluIjLIZ-19" value="" style="fontColor=#0066CC;verticalAlign=top;verticalLabelPosition=bottom;labelPosition=center;align=center;html=1;outlineConnect=0;fillColor=#CCCCCC;strokeColor=#6881B3;gradientColor=none;gradientDirection=north;strokeWidth=2;shape=mxgraph.networks.pc;" vertex="1" parent="1">
          <mxGeometry x="163" y="510" width="52" height="30" as="geometry" />
        </mxCell>
        <mxCell id="oCrEiWGrqS6RGluIjLIZ-20" value="" style="fontColor=#0066CC;verticalAlign=top;verticalLabelPosition=bottom;labelPosition=center;align=center;html=1;outlineConnect=0;fillColor=#CCCCCC;strokeColor=#6881B3;gradientColor=none;gradientDirection=north;strokeWidth=2;shape=mxgraph.networks.laptop;" vertex="1" parent="1">
          <mxGeometry x="86" y="477.5" width="34" height="20" as="geometry" />
        </mxCell>
        <mxCell id="oCrEiWGrqS6RGluIjLIZ-21" value="" style="fontColor=#0066CC;verticalAlign=top;verticalLabelPosition=bottom;labelPosition=center;align=center;html=1;outlineConnect=0;fillColor=#CCCCCC;strokeColor=#6881B3;gradientColor=none;gradientDirection=north;strokeWidth=2;shape=mxgraph.networks.printer;" vertex="1" parent="1">
          <mxGeometry x="178" y="320" width="30" height="50" as="geometry" />
        </mxCell>
        <mxCell id="oCrEiWGrqS6RGluIjLIZ-22" value="" style="fontColor=#0066CC;verticalAlign=top;verticalLabelPosition=bottom;labelPosition=center;align=center;html=1;outlineConnect=0;fillColor=#CCCCCC;strokeColor=#6881B3;gradientColor=none;gradientDirection=north;strokeWidth=2;shape=mxgraph.networks.tablet;" vertex="1" parent="1">
          <mxGeometry x="90" y="320" width="35" height="30" as="geometry" />
        </mxCell>
        <mxCell id="oCrEiWGrqS6RGluIjLIZ-23" value="" style="image;html=1;image=img/lib/clip_art/networking/Wireless_Router_N_128x128.png" vertex="1" parent="1">
          <mxGeometry x="92.5" y="397.5" width="30" height="30" as="geometry" />
        </mxCell>
        <mxCell id="oCrEiWGrqS6RGluIjLIZ-24" value="" style="fontColor=#0066CC;verticalAlign=top;verticalLabelPosition=bottom;labelPosition=center;align=center;html=1;outlineConnect=0;fillColor=#CCCCCC;strokeColor=#6881B3;gradientColor=none;gradientDirection=north;strokeWidth=2;shape=mxgraph.networks.switch;" vertex="1" parent="1">
          <mxGeometry x="250" y="400" width="35" height="15" as="geometry" />
        </mxCell>
        <mxCell id="oCrEiWGrqS6RGluIjLIZ-25" value="" style="fontColor=#0066CC;verticalAlign=top;verticalLabelPosition=bottom;labelPosition=center;align=center;html=1;outlineConnect=0;fillColor=#CCCCCC;strokeColor=#6881B3;gradientColor=none;gradientDirection=north;strokeWidth=2;shape=mxgraph.networks.pc;" vertex="1" parent="1">
          <mxGeometry x="680" y="285" width="42" height="30" as="geometry" />
        </mxCell>
        <mxCell id="oCrEiWGrqS6RGluIjLIZ-26" value="" style="fontColor=#0066CC;verticalAlign=top;verticalLabelPosition=bottom;labelPosition=center;align=center;html=1;outlineConnect=0;fillColor=#CCCCCC;strokeColor=#6881B3;gradientColor=none;gradientDirection=north;strokeWidth=2;shape=mxgraph.networks.pc;" vertex="1" parent="1">
          <mxGeometry x="688" y="340" width="38" height="30" as="geometry" />
        </mxCell>
        <mxCell id="oCrEiWGrqS6RGluIjLIZ-27" value="" style="fontColor=#0066CC;verticalAlign=top;verticalLabelPosition=bottom;labelPosition=center;align=center;html=1;outlineConnect=0;fillColor=#CCCCCC;strokeColor=#6881B3;gradientColor=none;gradientDirection=north;strokeWidth=2;shape=mxgraph.networks.pc;" vertex="1" parent="1">
          <mxGeometry x="682" y="400" width="44" height="30" as="geometry" />
        </mxCell>
        <mxCell id="oCrEiWGrqS6RGluIjLIZ-28" value="" style="fontColor=#0066CC;verticalAlign=top;verticalLabelPosition=bottom;labelPosition=center;align=center;html=1;outlineConnect=0;fillColor=#CCCCCC;strokeColor=#6881B3;gradientColor=none;gradientDirection=north;strokeWidth=2;shape=mxgraph.networks.laptop;" vertex="1" parent="1">
          <mxGeometry x="766" y="457.5" width="36" height="20" as="geometry" />
        </mxCell>
        <mxCell id="oCrEiWGrqS6RGluIjLIZ-74" style="edgeStyle=orthogonalEdgeStyle;rounded=0;orthogonalLoop=1;jettySize=auto;html=1;exitX=0;exitY=0.5;exitDx=0;exitDy=0;exitPerimeter=0;" edge="1" parent="1" source="oCrEiWGrqS6RGluIjLIZ-29">
          <mxGeometry relative="1" as="geometry">
            <mxPoint x="620" y="380" as="targetPoint" />
          </mxGeometry>
        </mxCell>
        <mxCell id="oCrEiWGrqS6RGluIjLIZ-29" value="" style="fontColor=#0066CC;verticalAlign=top;verticalLabelPosition=bottom;labelPosition=center;align=center;html=1;outlineConnect=0;fillColor=#CCCCCC;strokeColor=#6881B3;gradientColor=none;gradientDirection=north;strokeWidth=2;shape=mxgraph.networks.printer;" vertex="1" parent="1">
          <mxGeometry x="682" y="450" width="32" height="40" as="geometry" />
        </mxCell>
        <mxCell id="oCrEiWGrqS6RGluIjLIZ-30" value="" style="fontColor=#0066CC;verticalAlign=top;verticalLabelPosition=bottom;labelPosition=center;align=center;html=1;outlineConnect=0;fillColor=#CCCCCC;strokeColor=#6881B3;gradientColor=none;gradientDirection=north;strokeWidth=2;shape=mxgraph.networks.tablet;" vertex="1" parent="1">
          <mxGeometry x="759" y="285" width="37" height="30" as="geometry" />
        </mxCell>
        <mxCell id="oCrEiWGrqS6RGluIjLIZ-31" value="" style="image;html=1;image=img/lib/clip_art/networking/Wireless_Router_N_128x128.png" vertex="1" parent="1">
          <mxGeometry x="756.5" y="370" width="42" height="30" as="geometry" />
        </mxCell>
        <mxCell id="oCrEiWGrqS6RGluIjLIZ-32" value="" style="fontColor=#0066CC;verticalAlign=top;verticalLabelPosition=bottom;labelPosition=center;align=center;html=1;outlineConnect=0;fillColor=#CCCCCC;strokeColor=#6881B3;gradientColor=none;gradientDirection=north;strokeWidth=2;shape=mxgraph.networks.switch;" vertex="1" parent="1">
          <mxGeometry x="613" y="360" width="27" height="15" as="geometry" />
        </mxCell>
        <mxCell id="oCrEiWGrqS6RGluIjLIZ-35" value="" style="fontColor=#0066CC;verticalAlign=top;verticalLabelPosition=bottom;labelPosition=center;align=center;html=1;outlineConnect=0;fillColor=#CCCCCC;strokeColor=#6881B3;gradientColor=none;gradientDirection=north;strokeWidth=2;shape=mxgraph.networks.switch;" vertex="1" parent="1">
          <mxGeometry x="387" y="320" width="76" height="20" as="geometry" />
        </mxCell>
        <mxCell id="oCrEiWGrqS6RGluIjLIZ-96" style="edgeStyle=orthogonalEdgeStyle;rounded=0;orthogonalLoop=1;jettySize=auto;html=1;exitX=0.5;exitY=0;exitDx=0;exitDy=0;exitPerimeter=0;" edge="1" parent="1" source="oCrEiWGrqS6RGluIjLIZ-36" target="oCrEiWGrqS6RGluIjLIZ-35">
          <mxGeometry relative="1" as="geometry" />
        </mxCell>
        <mxCell id="oCrEiWGrqS6RGluIjLIZ-36" value="" style="fontColor=#0066CC;verticalAlign=top;verticalLabelPosition=bottom;labelPosition=center;align=center;html=1;outlineConnect=0;fillColor=#CCCCCC;strokeColor=#6881B3;gradientColor=none;gradientDirection=north;strokeWidth=2;shape=mxgraph.networks.server;" vertex="1" parent="1">
          <mxGeometry x="441" y="425" width="61" height="80" as="geometry" />
        </mxCell>
        <mxCell id="oCrEiWGrqS6RGluIjLIZ-37" value="" style="fontColor=#0066CC;verticalAlign=top;verticalLabelPosition=bottom;labelPosition=center;align=center;html=1;outlineConnect=0;fillColor=#CCCCCC;strokeColor=#6881B3;gradientColor=none;gradientDirection=north;strokeWidth=2;shape=mxgraph.networks.router;" vertex="1" parent="1">
          <mxGeometry x="340" y="437.5" width="70" height="20" as="geometry" />
        </mxCell>
        <mxCell id="oCrEiWGrqS6RGluIjLIZ-39" style="edgeStyle=orthogonalEdgeStyle;rounded=0;orthogonalLoop=1;jettySize=auto;html=1;exitX=0.5;exitY=1;exitDx=0;exitDy=0;exitPerimeter=0;" edge="1" parent="1" source="oCrEiWGrqS6RGluIjLIZ-24" target="oCrEiWGrqS6RGluIjLIZ-24">
          <mxGeometry relative="1" as="geometry" />
        </mxCell>
        <mxCell id="oCrEiWGrqS6RGluIjLIZ-54" style="edgeStyle=orthogonalEdgeStyle;rounded=0;orthogonalLoop=1;jettySize=auto;html=1;exitX=0.9;exitY=1;exitDx=0;exitDy=0;exitPerimeter=0;entryX=0.05;entryY=0.05;entryDx=0;entryDy=0;entryPerimeter=0;" edge="1" parent="1" source="ZWvVgbF7W6ES2EtyLQqH-8" target="oCrEiWGrqS6RGluIjLIZ-35">
          <mxGeometry relative="1" as="geometry" />
        </mxCell>
        <mxCell id="oCrEiWGrqS6RGluIjLIZ-55" style="edgeStyle=orthogonalEdgeStyle;rounded=0;orthogonalLoop=1;jettySize=auto;html=1;exitX=0.5;exitY=1;exitDx=0;exitDy=0;exitPerimeter=0;entryX=0.5;entryY=0;entryDx=0;entryDy=0;entryPerimeter=0;" edge="1" parent="1" source="oCrEiWGrqS6RGluIjLIZ-8" target="oCrEiWGrqS6RGluIjLIZ-35">
          <mxGeometry relative="1" as="geometry" />
        </mxCell>
        <mxCell id="oCrEiWGrqS6RGluIjLIZ-56" style="edgeStyle=orthogonalEdgeStyle;rounded=0;orthogonalLoop=1;jettySize=auto;html=1;exitX=0.1;exitY=1;exitDx=0;exitDy=0;exitPerimeter=0;entryX=0.95;entryY=0.05;entryDx=0;entryDy=0;entryPerimeter=0;" edge="1" parent="1" source="oCrEiWGrqS6RGluIjLIZ-16" target="oCrEiWGrqS6RGluIjLIZ-35">
          <mxGeometry relative="1" as="geometry" />
        </mxCell>
        <mxCell id="oCrEiWGrqS6RGluIjLIZ-57" style="edgeStyle=orthogonalEdgeStyle;rounded=0;orthogonalLoop=1;jettySize=auto;html=1;exitX=1;exitY=0.5;exitDx=0;exitDy=0;exitPerimeter=0;entryX=0;entryY=0.5;entryDx=0;entryDy=0;entryPerimeter=0;" edge="1" parent="1" source="oCrEiWGrqS6RGluIjLIZ-24" target="oCrEiWGrqS6RGluIjLIZ-35">
          <mxGeometry relative="1" as="geometry" />
        </mxCell>
        <mxCell id="oCrEiWGrqS6RGluIjLIZ-58" style="edgeStyle=orthogonalEdgeStyle;rounded=0;orthogonalLoop=1;jettySize=auto;html=1;exitX=0;exitY=0.5;exitDx=0;exitDy=0;exitPerimeter=0;entryX=1;entryY=0.5;entryDx=0;entryDy=0;entryPerimeter=0;" edge="1" parent="1" source="oCrEiWGrqS6RGluIjLIZ-32" target="oCrEiWGrqS6RGluIjLIZ-35">
          <mxGeometry relative="1" as="geometry" />
        </mxCell>
        <mxCell id="oCrEiWGrqS6RGluIjLIZ-59" style="edgeStyle=orthogonalEdgeStyle;rounded=0;orthogonalLoop=1;jettySize=auto;html=1;exitX=0;exitY=0.85;exitDx=0;exitDy=0;exitPerimeter=0;entryX=0.05;entryY=0.05;entryDx=0;entryDy=0;entryPerimeter=0;" edge="1" parent="1" source="oCrEiWGrqS6RGluIjLIZ-9" target="oCrEiWGrqS6RGluIjLIZ-16">
          <mxGeometry relative="1" as="geometry" />
        </mxCell>
        <mxCell id="oCrEiWGrqS6RGluIjLIZ-60" style="edgeStyle=orthogonalEdgeStyle;rounded=0;orthogonalLoop=1;jettySize=auto;html=1;exitX=0;exitY=0.85;exitDx=0;exitDy=0;exitPerimeter=0;entryX=0.5;entryY=0;entryDx=0;entryDy=0;entryPerimeter=0;" edge="1" parent="1" source="oCrEiWGrqS6RGluIjLIZ-10" target="oCrEiWGrqS6RGluIjLIZ-16">
          <mxGeometry relative="1" as="geometry" />
        </mxCell>
        <mxCell id="oCrEiWGrqS6RGluIjLIZ-63" style="edgeStyle=orthogonalEdgeStyle;rounded=0;orthogonalLoop=1;jettySize=auto;html=1;exitX=0.95;exitY=1;exitDx=0;exitDy=0;exitPerimeter=0;entryX=0.05;entryY=0.05;entryDx=0;entryDy=0;entryPerimeter=0;" edge="1" parent="1" source="ZWvVgbF7W6ES2EtyLQqH-2" target="ZWvVgbF7W6ES2EtyLQqH-8">
          <mxGeometry relative="1" as="geometry" />
        </mxCell>
        <mxCell id="oCrEiWGrqS6RGluIjLIZ-65" style="edgeStyle=orthogonalEdgeStyle;rounded=0;orthogonalLoop=1;jettySize=auto;html=1;exitX=0.5;exitY=1;exitDx=0;exitDy=0;exitPerimeter=0;entryX=0.5;entryY=0;entryDx=0;entryDy=0;entryPerimeter=0;" edge="1" parent="1" source="ZWvVgbF7W6ES2EtyLQqH-1" target="ZWvVgbF7W6ES2EtyLQqH-8">
          <mxGeometry relative="1" as="geometry" />
        </mxCell>
        <mxCell id="oCrEiWGrqS6RGluIjLIZ-66" style="edgeStyle=orthogonalEdgeStyle;rounded=0;orthogonalLoop=1;jettySize=auto;html=1;exitX=0.95;exitY=1;exitDx=0;exitDy=0;exitPerimeter=0;entryX=0.95;entryY=0.05;entryDx=0;entryDy=0;entryPerimeter=0;" edge="1" parent="1" source="ZWvVgbF7W6ES2EtyLQqH-3" target="ZWvVgbF7W6ES2EtyLQqH-8">
          <mxGeometry relative="1" as="geometry" />
        </mxCell>
        <mxCell id="oCrEiWGrqS6RGluIjLIZ-67" style="edgeStyle=orthogonalEdgeStyle;rounded=0;orthogonalLoop=1;jettySize=auto;html=1;exitX=0.95;exitY=1;exitDx=0;exitDy=0;exitPerimeter=0;entryX=0.1;entryY=1;entryDx=0;entryDy=0;entryPerimeter=0;" edge="1" parent="1" source="oCrEiWGrqS6RGluIjLIZ-3" target="oCrEiWGrqS6RGluIjLIZ-8">
          <mxGeometry relative="1" as="geometry" />
        </mxCell>
        <mxCell id="oCrEiWGrqS6RGluIjLIZ-69" style="edgeStyle=orthogonalEdgeStyle;rounded=0;orthogonalLoop=1;jettySize=auto;html=1;exitX=0;exitY=0.85;exitDx=0;exitDy=0;exitPerimeter=0;entryX=0.95;entryY=0.05;entryDx=0;entryDy=0;entryPerimeter=0;" edge="1" parent="1" source="oCrEiWGrqS6RGluIjLIZ-1" target="oCrEiWGrqS6RGluIjLIZ-8">
          <mxGeometry relative="1" as="geometry" />
        </mxCell>
        <mxCell id="oCrEiWGrqS6RGluIjLIZ-70" style="edgeStyle=orthogonalEdgeStyle;rounded=0;orthogonalLoop=1;jettySize=auto;html=1;exitX=0.5;exitY=1;exitDx=0;exitDy=0;exitPerimeter=0;entryX=0.5;entryY=0;entryDx=0;entryDy=0;entryPerimeter=0;" edge="1" parent="1" source="oCrEiWGrqS6RGluIjLIZ-5" target="oCrEiWGrqS6RGluIjLIZ-8">
          <mxGeometry relative="1" as="geometry" />
        </mxCell>
        <mxCell id="oCrEiWGrqS6RGluIjLIZ-71" style="edgeStyle=orthogonalEdgeStyle;rounded=0;orthogonalLoop=1;jettySize=auto;html=1;exitX=0;exitY=0.85;exitDx=0;exitDy=0;exitPerimeter=0;entryX=0.5;entryY=0;entryDx=0;entryDy=0;entryPerimeter=0;" edge="1" parent="1" source="oCrEiWGrqS6RGluIjLIZ-25" target="oCrEiWGrqS6RGluIjLIZ-32">
          <mxGeometry relative="1" as="geometry" />
        </mxCell>
        <mxCell id="oCrEiWGrqS6RGluIjLIZ-72" style="edgeStyle=orthogonalEdgeStyle;rounded=0;orthogonalLoop=1;jettySize=auto;html=1;exitX=0;exitY=0.5;exitDx=0;exitDy=0;exitPerimeter=0;entryX=1;entryY=0.5;entryDx=0;entryDy=0;entryPerimeter=0;" edge="1" parent="1" source="oCrEiWGrqS6RGluIjLIZ-26" target="oCrEiWGrqS6RGluIjLIZ-32">
          <mxGeometry relative="1" as="geometry" />
        </mxCell>
        <mxCell id="oCrEiWGrqS6RGluIjLIZ-73" style="edgeStyle=orthogonalEdgeStyle;rounded=0;orthogonalLoop=1;jettySize=auto;html=1;exitX=0;exitY=0.5;exitDx=0;exitDy=0;exitPerimeter=0;entryX=0.5;entryY=1;entryDx=0;entryDy=0;entryPerimeter=0;" edge="1" parent="1" source="oCrEiWGrqS6RGluIjLIZ-27" target="oCrEiWGrqS6RGluIjLIZ-32">
          <mxGeometry relative="1" as="geometry" />
        </mxCell>
        <mxCell id="oCrEiWGrqS6RGluIjLIZ-75" style="edgeStyle=orthogonalEdgeStyle;rounded=0;orthogonalLoop=1;jettySize=auto;html=1;exitX=0.9;exitY=1;exitDx=0;exitDy=0;exitPerimeter=0;entryX=0.5;entryY=0;entryDx=0;entryDy=0;entryPerimeter=0;" edge="1" parent="1" source="oCrEiWGrqS6RGluIjLIZ-21" target="oCrEiWGrqS6RGluIjLIZ-24">
          <mxGeometry relative="1" as="geometry" />
        </mxCell>
        <mxCell id="oCrEiWGrqS6RGluIjLIZ-76" style="edgeStyle=orthogonalEdgeStyle;rounded=0;orthogonalLoop=1;jettySize=auto;html=1;exitX=0.95;exitY=1;exitDx=0;exitDy=0;exitPerimeter=0;entryX=0.5;entryY=1;entryDx=0;entryDy=0;entryPerimeter=0;" edge="1" parent="1" source="oCrEiWGrqS6RGluIjLIZ-17" target="oCrEiWGrqS6RGluIjLIZ-24">
          <mxGeometry relative="1" as="geometry" />
        </mxCell>
        <mxCell id="oCrEiWGrqS6RGluIjLIZ-78" style="edgeStyle=orthogonalEdgeStyle;rounded=0;orthogonalLoop=1;jettySize=auto;html=1;exitX=0.95;exitY=1;exitDx=0;exitDy=0;exitPerimeter=0;entryX=0.1;entryY=1;entryDx=0;entryDy=0;entryPerimeter=0;" edge="1" parent="1" source="oCrEiWGrqS6RGluIjLIZ-19" target="oCrEiWGrqS6RGluIjLIZ-24">
          <mxGeometry relative="1" as="geometry" />
        </mxCell>
        <mxCell id="oCrEiWGrqS6RGluIjLIZ-81" value="" style="sketch=0;pointerEvents=1;shadow=0;dashed=0;html=1;strokeColor=none;fillColor=#434445;aspect=fixed;labelPosition=center;verticalLabelPosition=bottom;verticalAlign=top;align=center;outlineConnect=0;shape=mxgraph.vvd.wi_fi;direction=west;" vertex="1" parent="1">
          <mxGeometry x="88" y="360" width="30" height="30" as="geometry" />
        </mxCell>
        <mxCell id="oCrEiWGrqS6RGluIjLIZ-83" value="" style="sketch=0;pointerEvents=1;shadow=0;dashed=0;html=1;strokeColor=none;fillColor=#434445;aspect=fixed;labelPosition=center;verticalLabelPosition=bottom;verticalAlign=top;align=center;outlineConnect=0;shape=mxgraph.vvd.wi_fi;" vertex="1" parent="1">
          <mxGeometry x="86" y="440" width="30" height="30" as="geometry" />
        </mxCell>
        <mxCell id="oCrEiWGrqS6RGluIjLIZ-84" value="" style="sketch=0;pointerEvents=1;shadow=0;dashed=0;html=1;strokeColor=none;fillColor=#434445;aspect=fixed;labelPosition=center;verticalLabelPosition=bottom;verticalAlign=top;align=center;outlineConnect=0;shape=mxgraph.vvd.wi_fi;" vertex="1" parent="1">
          <mxGeometry x="58" y="30" width="30" height="30" as="geometry" />
        </mxCell>
        <mxCell id="oCrEiWGrqS6RGluIjLIZ-85" value="" style="sketch=0;pointerEvents=1;shadow=0;dashed=0;html=1;strokeColor=none;fillColor=#434445;aspect=fixed;labelPosition=center;verticalLabelPosition=bottom;verticalAlign=top;align=center;outlineConnect=0;shape=mxgraph.vvd.wi_fi;direction=west;" vertex="1" parent="1">
          <mxGeometry x="140" y="30" width="30.5" height="30.5" as="geometry" />
        </mxCell>
        <mxCell id="oCrEiWGrqS6RGluIjLIZ-86" value="" style="sketch=0;pointerEvents=1;shadow=0;dashed=0;html=1;strokeColor=none;fillColor=#434445;aspect=fixed;labelPosition=center;verticalLabelPosition=bottom;verticalAlign=top;align=center;outlineConnect=0;shape=mxgraph.vvd.wi_fi;" vertex="1" parent="1">
          <mxGeometry x="340" y="43" width="37" height="37" as="geometry" />
        </mxCell>
        <mxCell id="oCrEiWGrqS6RGluIjLIZ-87" value="" style="sketch=0;pointerEvents=1;shadow=0;dashed=0;html=1;strokeColor=none;fillColor=#434445;aspect=fixed;labelPosition=center;verticalLabelPosition=bottom;verticalAlign=top;align=center;outlineConnect=0;shape=mxgraph.vvd.wi_fi;direction=west;" vertex="1" parent="1">
          <mxGeometry x="420" y="50" width="30" height="30" as="geometry" />
        </mxCell>
        <mxCell id="oCrEiWGrqS6RGluIjLIZ-88" value="" style="sketch=0;pointerEvents=1;shadow=0;dashed=0;html=1;strokeColor=none;fillColor=#434445;aspect=fixed;labelPosition=center;verticalLabelPosition=bottom;verticalAlign=top;align=center;outlineConnect=0;shape=mxgraph.vvd.wi_fi;direction=south;" vertex="1" parent="1">
          <mxGeometry x="740" y="46.5" width="30" height="30" as="geometry" />
        </mxCell>
        <mxCell id="oCrEiWGrqS6RGluIjLIZ-89" value="" style="sketch=0;pointerEvents=1;shadow=0;dashed=0;html=1;strokeColor=none;fillColor=#434445;aspect=fixed;labelPosition=center;verticalLabelPosition=bottom;verticalAlign=top;align=center;outlineConnect=0;shape=mxgraph.vvd.wi_fi;direction=north;" vertex="1" parent="1">
          <mxGeometry x="749.93" y="120" width="39" height="39" as="geometry" />
        </mxCell>
        <mxCell id="oCrEiWGrqS6RGluIjLIZ-90" value="" style="sketch=0;pointerEvents=1;shadow=0;dashed=0;html=1;strokeColor=none;fillColor=#434445;aspect=fixed;labelPosition=center;verticalLabelPosition=bottom;verticalAlign=top;align=center;outlineConnect=0;shape=mxgraph.vvd.wi_fi;direction=south;" vertex="1" parent="1">
          <mxGeometry x="759" y="320" width="40" height="40" as="geometry" />
        </mxCell>
        <mxCell id="oCrEiWGrqS6RGluIjLIZ-91" value="" style="sketch=0;pointerEvents=1;shadow=0;dashed=0;html=1;strokeColor=none;fillColor=#434445;aspect=fixed;labelPosition=center;verticalLabelPosition=bottom;verticalAlign=top;align=center;outlineConnect=0;shape=mxgraph.vvd.wi_fi;" vertex="1" parent="1">
          <mxGeometry x="766" y="410" width="40" height="40" as="geometry" />
        </mxCell>
        <mxCell id="oCrEiWGrqS6RGluIjLIZ-94" value="" style="fontColor=#0066CC;verticalAlign=top;verticalLabelPosition=bottom;labelPosition=center;align=center;html=1;outlineConnect=0;fillColor=#CCCCCC;strokeColor=#6881B3;gradientColor=none;gradientDirection=north;strokeWidth=2;shape=mxgraph.networks.mobile;" vertex="1" parent="1">
          <mxGeometry x="560" y="530" width="21" height="35" as="geometry" />
        </mxCell>
        <mxCell id="oCrEiWGrqS6RGluIjLIZ-95" value="" style="fontColor=#0066CC;verticalAlign=top;verticalLabelPosition=bottom;labelPosition=center;align=center;html=1;outlineConnect=0;fillColor=#CCCCCC;strokeColor=#6881B3;gradientColor=none;gradientDirection=north;strokeWidth=2;shape=mxgraph.networks.mobile;" vertex="1" parent="1">
          <mxGeometry x="600" y="530" width="20" height="35" as="geometry" />
        </mxCell>
        <mxCell id="oCrEiWGrqS6RGluIjLIZ-97" style="edgeStyle=orthogonalEdgeStyle;rounded=0;orthogonalLoop=1;jettySize=auto;html=1;exitX=0.5;exitY=0;exitDx=0;exitDy=0;exitPerimeter=0;entryX=0.1;entryY=1;entryDx=0;entryDy=0;entryPerimeter=0;" edge="1" parent="1" source="oCrEiWGrqS6RGluIjLIZ-37" target="oCrEiWGrqS6RGluIjLIZ-35">
          <mxGeometry relative="1" as="geometry" />
        </mxCell>
      </root>
    </mxGraphModel>
  </diagram>
</mxfile>
